<?xml version="1.0" encoding="utf-8"?>
<!-- Generator: Adobe Illustrator 22.1.0, SVG Export Plug-In . SVG Version: 6.00 Build 0)  -->
<svg version="1.1" id="Layer_1" focusable="false" xmlns="http://www.w3.org/2000/svg" xmlns:xlink="http://www.w3.org/1999/xlink"
	 x="0px" y="0px" viewBox="0 0 640 512" style="enable-background:new 0 0 640 512;" xml:space="preserve">
<style type="text/css">
	.st0{fill:#18C485;}
</style>
<path class="st0" d="M622.3,271.1l-115.2-45c-4.1-1.6-12.6-3.7-22.2,0l-115.2,45c-10.7,4.2-17.7,14-17.7,24.9
	c0,111.6,68.7,188.8,132.9,213.9c9.6,3.7,18,1.6,22.2,0C558.4,489.9,640,420.5,640,296C640,285.1,633,275.3,622.3,271.1z M496,462.4
	V273.3l95.5,37.3C585.9,397.7,530.6,446,496,462.4L496,462.4z M356.2,464H48v-25.6c0-47.6,38.8-86.4,86.4-86.4
	c14.6,0,38.3,16,89.6,16c47.1,0,70.9-13.5,85.4-15.5c-2.9-15.2-4.6-31-5.1-47.5c-25.6,3.2-39.5,15-80.4,15c-47.1,0-60.8-16-89.6-16
	C60.2,304,0,364.2,0,438.4V464c0,26.5,21.5,48,48,48h351.3C383.8,498.3,369.1,482.3,356.2,464L356.2,464z M224,288
	c79.5,0,144-64.5,144-144S303.5,0,224,0S80,64.5,80,144S144.5,288,224,288z M224,48c52.9,0,96,43.1,96,96s-43.1,96-96,96
	s-96-43.1-96-96S171.1,48,224,48z"/>
</svg>
