<?xml version="1.0" encoding="utf-8"?>
<!-- Generator: Adobe Illustrator 22.1.0, SVG Export Plug-In . SVG Version: 6.00 Build 0)  -->
<svg version="1.1" id="Layer_1" focusable="false" xmlns="http://www.w3.org/2000/svg" xmlns:xlink="http://www.w3.org/1999/xlink"
	 x="0px" y="0px" viewBox="0 0 640 512" style="enable-background:new 0 0 640 512;" xml:space="preserve">
<style type="text/css">
	.st0{fill:#18C485;}
</style>
<path class="st0" d="M128,352H32c-17.7,0-32,14.3-32,32v96c0,17.7,14.3,32,32,32h96c17.7,0,32-14.3,32-32v-96
	C160,366.3,145.7,352,128,352z M104,272h192v48h48v-48h192v48h48v-57.6c0-21.2-17.2-38.4-38.4-38.4H344v-64h40c17.7,0,32-14.3,32-32
	V32c0-17.7-14.3-32-32-32H256c-17.7,0-32,14.3-32,32v96c0,17.7,14.3,32,32,32h40v64H94.4C73.2,224,56,241.2,56,262.4V320h48V272z
	 M368,352h-96c-17.7,0-32,14.3-32,32v96c0,17.7,14.3,32,32,32h96c17.7,0,32-14.3,32-32v-96C400,366.3,385.7,352,368,352z M608,352
	h-96c-17.7,0-32,14.3-32,32v96c0,17.7,14.3,32,32,32h96c17.7,0,32-14.3,32-32v-96C640,366.3,625.7,352,608,352z"/>
</svg>
