<?xml version="1.0" encoding="utf-8"?>
<!-- Generator: Adobe Illustrator 22.1.0, SVG Export Plug-In . SVG Version: 6.00 Build 0)  -->
<svg version="1.1" id="Layer_1" focusable="false" xmlns="http://www.w3.org/2000/svg" xmlns:xlink="http://www.w3.org/1999/xlink"
	 x="0px" y="0px" viewBox="0 0 640 512" style="enable-background:new 0 0 640 512;" xml:space="preserve">
<style type="text/css">
	.st0{fill:#18C485;}
</style>
<path class="st0" d="M624,368h-48V96c0-35.3-28.7-64-64-64H128c-35.3,0-64,28.7-64,64v272H16c-8.8,0-16,7.2-16,16v48
	c0,44.1,35.9,80,80,80h480c44.1,0,80-35.9,80-80v-48C640,375.2,632.8,368,624,368z M96,96c0-17.7,14.3-32,32-32h384
	c17.7,0,32,14.3,32,32v272H391.1c-4.1,0-7,3.1-7.9,7.1c-3.2,14.3-16,24.9-31.2,24.9h-64c-15.2,0-28-10.6-31.2-24.9
	c-0.9-4-3.9-7.1-7.9-7.1H96V96z M608,432c0,26.5-21.5,48-48,48H80c-26.5,0-48-21.5-48-48v-32h194.8c6.6,18.6,24.4,32,45.3,32h96
	c20.9,0,38.7-13.4,45.3-32H608V432z"/>
<path class="st0" d="M277.3,263.3c-4.2-4.2-2-3-12.1-5.7c-4.6-1.2-8.6-3.6-12.3-6.4l-21.9,53.8c-2.1,5.2,1.8,10.9,7.5,10.6l25.5-1
	l17.5,18.5c3.9,4.1,10.7,2.8,12.8-2.4l25.2-61.7c-5.2,2.9-11.1,4.6-17.1,4.6C292.8,273.6,283.9,270,277.3,263.3z M415.4,304.9
	l-21.9-53.8c-3.7,2.8-7.7,5.2-12.3,6.4c-10.2,2.7-8,1.5-12.1,5.7c-6.7,6.7-15.5,10.3-25,10.3c-6,0-11.8-1.7-17.1-4.6l25.2,61.7
	c2.1,5.2,8.9,6.5,12.8,2.4l17.5-18.5l25.5,1C413.5,315.8,417.5,310.1,415.4,304.9z M357.5,252.4c7.4-7.5,8.2-6.9,18.8-9.7
	c6.7-1.8,12-7.2,13.8-14c3.6-13.7,2.7-12.1,12.5-22.1c4.9-5,6.8-12.3,5-19.1c-3.6-13.7-3.6-11.8,0-25.5c1.8-6.8-0.1-14.1-5-19.1
	c-9.9-10-8.9-8.4-12.5-22.1c-1.8-6.8-7-12.2-13.8-14c-13.5-3.7-11.9-2.7-21.7-12.8c-4.9-5-12.1-7-18.8-5.1
	c-13.5,3.7-11.6,3.7-25.1,0c-6.7-1.8-13.9,0.1-18.8,5.1c-9.9,10-8.2,9.1-21.7,12.8c-6.7,1.8-12,7.2-13.8,14
	c-3.6,13.7-2.7,12.1-12.5,22.1c-4.9,5-6.8,12.3-5,19.1c3.6,13.7,3.6,11.8,0,25.5c-1.8,6.8,0.1,14.1,5,19.1c9.9,10,8.9,8.4,12.5,22.1
	c1.8,6.8,7,12.2,13.8,14c10.8,2.9,11.6,2.5,18.7,9.7c6.4,6.5,16.4,7.7,24,2.8c6.3-4,14.3-4,20.6,0
	C341.1,260,351.1,258.9,357.5,252.4z M277.5,173.1c0-25.6,20.4-46.4,45.6-46.4s45.6,20.8,45.6,46.4s-20.4,46.4-45.6,46.4
	S277.5,198.7,277.5,173.1L277.5,173.1z"/>
</svg>
